<?xml version="1.0" encoding="utf-8"?>
<!-- Generator: Adobe Illustrator 22.1.0, SVG Export Plug-In . SVG Version: 6.00 Build 0)  -->
<svg version="1.1" xmlns="http://www.w3.org/2000/svg" xmlns:xlink="http://www.w3.org/1999/xlink" x="0px" y="0px"
	 viewBox="0 0 46.3 21.7" style="enable-background:new 0 0 46.3 21.7;" xml:space="preserve">
<style type="text/css">
	.st0{display:none;}
	.st1{display:inline;fill:#1F1B1B;}
	.st2{display:inline;}
</style>
<g id="Layer_1" class="st0">
	<path class="st1" d="M24.5,22.5c-3.2,0-5.8-2.7-5.8-5.9s2.7-5.8,5.9-5.8c3.2,0,5.8,2.6,5.8,5.9C30.4,19.9,27.7,22.5,24.5,22.5z
		 M24.5,12.7c-2.2,0-3.9,1.8-3.9,3.9c0,2.2,1.8,3.9,3.9,3.9c2.2,0,3.9-1.8,3.9-3.9C28.4,14.5,26.7,12.7,24.5,12.7z M31.5,29.7
		c-0.5,0-1-0.4-1-1c0-0.3,0.1-0.6,0.4-0.8c0.1-0.1,0.2-0.2,0.2-0.3L40.5,11c0.1-0.2,0.2-0.5,0.1-0.8c-0.1-0.3-0.2-0.5-0.5-0.6
		c-0.5-0.3-1.1-0.1-1.3,0.4l-8.2,14.6c-0.3,0.5-0.9,0.6-1.3,0.4c-0.5-0.3-0.6-0.9-0.4-1.3c0,0,0,0,0,0L37.1,9c0.8-1.4,2.6-1.9,4-1.1
		c1.4,0.8,1.9,2.6,1.1,4c0,0,0,0,0,0l-9.4,16.7c-0.2,0.3-0.4,0.6-0.7,0.8C32,29.6,31.8,29.7,31.5,29.7z M3.8,60
		c-0.8,0-1.5-0.3-2.1-0.8c-1.2-1.1-1.2-3-0.1-4.1c0,0,0,0,0,0l10.7-11.3c0.4-0.4,1-0.4,1.4,0c0,0,0,0,0,0c0.4,0.4,0.4,1,0,1.4
		c0,0,0,0,0,0L3.1,56.4c-0.4,0.4-0.4,1,0,1.4c0.4,0.4,1,0.4,1.4,0l10.8-11.4c0.4-0.4,1-0.4,1.4,0c0.4,0.4,0.4,1,0,1.4L5.9,59.1
		C5.3,59.7,4.6,60,3.8,60z M17.8,29.7c-0.2,0-0.4-0.1-0.6-0.2c-0.3-0.2-0.5-0.5-0.7-0.8L7.1,11.9c-0.8-1.4-0.3-3.2,1.1-4
		c1.4-0.8,3.2-0.3,4,1.1l8.2,14.7c0.3,0.5,0.1,1.1-0.4,1.3c0,0,0,0,0,0c-0.5,0.3-1.1,0.1-1.3-0.4c0,0,0,0,0,0L10.5,10
		c-0.3-0.5-0.9-0.6-1.3-0.4C8.7,9.9,8.5,10.5,8.8,11l9.4,16.7c0.1,0.1,0.1,0.2,0.2,0.3c0.4,0.3,0.5,1,0.1,1.4
		C18.4,29.5,18.1,29.7,17.8,29.7z M39.3,59.7c-0.2,0-0.3,0-0.5,0c-1.6-0.3-2.7-1.8-2.4-3.4c0,0,0,0,0,0l1.6-9.5l-3.3-1.5
		c-0.5-0.2-0.7-0.8-0.5-1.3c0.2-0.5,0.8-0.7,1.3-0.5l4,1.8c0.4,0.2,0.6,0.6,0.6,1.1l-1.7,10.2c0,0.3,0,0.5,0.2,0.7
		c0.1,0.2,0.4,0.4,0.6,0.4c0.5,0.1,1-0.3,1.1-0.8l2-11.7c0.1-0.4-0.2-0.9-0.6-1.1l-6.1-2.7c-0.5-0.2-0.7-0.8-0.5-1.3
		c0.2-0.5,0.8-0.7,1.3-0.5l0,0l6.1,2.7c1.2,0.5,1.9,1.8,1.7,3.2l-2,11.7C41.9,58.6,40.7,59.7,39.3,59.7z M18.1,49.3
		c-0.2,0-0.5-0.1-0.7-0.3l-5.8-5.3c-0.2-0.2-0.3-0.5-0.3-0.7c0-0.3,0.1-0.5,0.3-0.7l5.9-5.3l-0.9-10c0-1.9,1.5-3.5,3.4-3.5
		c0,0,0,0,0,0h8.9c1.9,0,3.4,1.5,3.4,3.4c0,0,0,0.1,0,0.1l-0.9,8.7l5.2,2.2c0.5,0.2,0.7,0.7,0.5,1.2l-2.3,6.5
		c-0.1,0.3-0.3,0.5-0.5,0.6c-0.3,0.1-0.5,0.1-0.8,0l-8.6-3.9l-6,6.7C18.7,49.1,18.4,49.3,18.1,49.3L18.1,49.3L18.1,49.3z M13.8,43
		l4.2,3.9l5.9-6.5c0.3-0.3,0.7-0.4,1.1-0.2l8.3,3.7l1.6-4.6l-5-2.1c-0.4-0.2-0.6-0.6-0.6-1l1-9.4c0-0.8-0.7-1.4-1.5-1.4h-8.9
		c-0.8,0-1.4,0.6-1.5,1.4l1,10.4c0,0.3-0.1,0.6-0.3,0.8L13.8,43z M44.2,9.8H4.8c-0.5,0-1-0.4-1-1s0.4-1,1-1c0,0,0,0,0,0h39.3
		c0.5,0,1,0.4,1,1S44.7,9.8,44.2,9.8C44.2,9.8,44.2,9.8,44.2,9.8L44.2,9.8z M4.8,17.6H1.9c-0.5,0-1-0.4-1-1c0,0,0,0,0,0V1
		c0-0.5,0.4-1,1-1h2.9c0.5,0,1,0.4,1,1v15.6C5.8,17.2,5.4,17.6,4.8,17.6C4.8,17.6,4.8,17.6,4.8,17.6L4.8,17.6z M2.9,15.7h1V2h-1
		V15.7z M1.9,17.6h-3c-0.5,0-1-0.4-1-1c0,0,0,0,0,0V1c0-0.5,0.4-1,1-1h3c0.5,0,1,0.4,1,1v15.6C2.9,17.2,2.4,17.6,1.9,17.6
		C1.9,17.6,1.9,17.6,1.9,17.6L1.9,17.6z M-0.1,15.7h1V2h-1L-0.1,15.7L-0.1,15.7z M50.1,17.6h-3c-0.5,0-1-0.4-1-1c0,0,0,0,0,0V1
		c0-0.5,0.4-1,1-1h3c0.5,0,1,0.4,1,1v15.6C51.1,17.2,50.6,17.6,50.1,17.6C50.1,17.6,50.1,17.6,50.1,17.6L50.1,17.6z M48.1,15.7h1V2
		h-1L48.1,15.7L48.1,15.7z M47.1,17.6h-3c-0.5,0-1-0.4-1-1c0,0,0,0,0,0V1c0-0.5,0.4-1,1-1h3c0.5,0,1,0.4,1,1v15.6
		C48.1,17.2,47.7,17.6,47.1,17.6C47.1,17.6,47.1,17.6,47.1,17.6L47.1,17.6z M45.2,15.7h1V2h-1L45.2,15.7L45.2,15.7z M-1.1,9.8h-3
		c-0.5,0-1-0.4-1-1s0.4-1,1-1c0,0,0,0,0,0h3c0.5,0,1,0.4,1,1C-0.1,9.3-0.5,9.8-1.1,9.8C-1,9.8-1.1,9.8-1.1,9.8L-1.1,9.8z M53,9.8h-3
		c-0.5,0-1-0.4-1-1s0.4-1,1-1c0,0,0,0,0,0h3c0.5,0,1,0.4,1,1C54,9.3,53.6,9.8,53,9.8L53,9.8z"/>
</g>
<g id="Layer_2">
	<g class="st0">
		<path class="st2" d="M25.7,11c0,0.1,0,0.2,0,0.3c0,0,0,0-0.1,0c-0.2,0.1-0.3,0.2-0.4,0.3c0,0.1-0.1,0.2-0.1,0.4
			c-0.2,0.8-0.5,1.4-1.1,1.9c-0.1,0-0.1,0.1-0.2,0.1c-0.2,0.2-0.3,0.4-0.4,0.6c-0.1,0.6-0.2,1.2-0.3,1.7c-0.1,0.5-0.2,1-0.2,1.6
			c-0.1,0.6-0.2,1.1-0.3,1.7c0,0.2,0,0.3-0.1,0.5c0,0.1-0.1,0.2-0.2,0.3c0,0-0.1,0-0.1,0c-0.7,0-1.4,0-2.1,0c-0.1,0-0.2,0-0.3,0
			c-0.1,0-0.1,0-0.2,0.1c0,0,0,0-0.1,0c-0.1-0.2-0.1-0.3-0.2-0.5c0-0.1,0-0.3-0.1-0.4c-0.1-0.4-0.3-0.6-0.5-0.9
			c-0.3-0.3-0.7-0.6-1.1-0.7c-0.3-0.1-0.5,0-0.8,0c-0.4,0.1-0.7,0.2-1,0.5c-0.4,0.3-0.7,0.8-0.8,1.3c0,0.1,0,0.2,0,0.3
			c0,0.1,0,0.1-0.1,0.2c-0.1,0.1-0.1,0.2-0.3,0.2c-0.8,0-1.7,0-2.5,0c-0.1,0-0.2-0.1-0.3-0.2c0-0.1-0.1-0.2-0.1-0.3
			c-0.1-0.5-0.2-1.1-0.3-1.6c-0.1-0.5-0.2-1-0.2-1.4c-0.1-0.5-0.1-0.9-0.2-1.4c-0.1-0.3-0.1-0.7-0.2-1c0-0.2-0.1-0.4-0.3-0.6
			c-0.4-0.3-0.7-0.7-1-1.1c-0.2-0.3-0.3-0.7-0.4-1.1c0-0.1,0-0.2-0.1-0.3c-0.1-0.2-0.2-0.3-0.4-0.4c0,0,0,0-0.1,0c0-0.1,0-0.2,0-0.3
			c0,0,0,0,0.1,0c0.2-0.1,0.3-0.2,0.4-0.4c0.1-0.2,0.1-0.3,0.2-0.5C9.6,9.5,9.8,9,10.2,8.5c0.2-0.2,0.4-0.4,0.7-0.6
			c0.3-0.2,0.5-0.3,0.8-0.5c0.3-0.2,0.5-0.5,0.7-0.8c0,0,0.1-0.1,0.1-0.1c0.2-0.1,0.2-0.3,0.2-0.5c0,0,0-0.1,0-0.1
			c0-1.2,0-2.4,0-3.6c0-0.2,0-0.5,0-0.7c0-0.2,0-0.3,0.1-0.5c0.1-0.2,0.2-0.4,0.5-0.6c0,0,0.1,0,0.1,0c0,0,0,0,0.1,0
			c2.6,0,5.1,0,7.7,0c0.1,0,0.1,0,0.2,0c0.3,0.2,0.5,0.4,0.5,0.8c0,0.1,0,0.1,0,0.2c0,1.4,0,2.8,0,4.2c0,0.1,0,0.2,0,0.3
			c0,0.1,0,0.1,0.1,0.2c0.2,0.2,0.3,0.3,0.5,0.5c0.1,0.1,0.2,0.2,0.3,0.4c0.1,0.2,0.3,0.3,0.5,0.4c0.4,0.2,0.7,0.5,1.1,0.8
			c0.4,0.5,0.7,1,0.9,1.6c0,0.1,0.1,0.2,0.1,0.4c0,0.2,0.1,0.3,0.3,0.4C25.5,10.9,25.6,10.9,25.7,11z M17.2,17.3
			c0.2,0,0.3,0,0.5,0.1c1,0.2,1.7,0.7,2.1,1.6c0.1,0.1,0.1,0.2,0.2,0.4c0,0.1,0.1,0.2,0.2,0.3c0.1,0.1,0.2,0.2,0.3,0.2
			c0.1,0,0.2,0,0.3,0c0.4,0,0.7,0,1.1,0c0.1,0,0.2-0.1,0.3-0.2c0,0,0-0.1,0-0.1c0-0.2,0.1-0.4,0.1-0.7c0.1-0.6,0.2-1.2,0.3-1.8
			c0.1-0.7,0.2-1.3,0.3-2c0-0.1,0-0.2,0-0.3c0-0.1,0-0.1-0.1-0.1c-0.1,0-0.1,0-0.2,0c-0.5,0.1-1,0.2-1.6,0.1
			c-0.4-0.1-0.9-0.2-1.2-0.4c-1-0.5-1.6-1.3-2-2.4c-0.1-0.2-0.1-0.4-0.1-0.6c0-0.1,0-0.1-0.1-0.1c-0.1-0.1-0.2-0.1-0.3,0
			c-0.1,0-0.1,0.1-0.1,0.2c0,0,0,0,0,0c0,0.2-0.1,0.3-0.1,0.5c-0.2,0.5-0.4,1-0.8,1.5c-0.7,0.8-1.6,1.2-2.6,1.3
			c-0.4,0-0.8,0-1.2-0.1c-0.1,0-0.2-0.1-0.4-0.1c-0.1,0-0.2,0-0.2,0.1c0,0,0,0,0,0.1c0,0.2,0.1,0.4,0.1,0.7c0.1,0.4,0.1,0.8,0.2,1.2
			c0.1,0.4,0.1,0.8,0.2,1.2c0.1,0.4,0.1,0.8,0.2,1.3c0,0.1,0,0.2,0.1,0.3c0,0.1,0.1,0.2,0.3,0.2c0,0,0.1,0,0.1,0c0.3,0,0.6,0,0.9,0
			c0.1,0,0.2,0,0.2,0c0.3,0,0.4-0.1,0.5-0.3c0,0,0-0.1,0-0.1C14.9,18.2,16,17.3,17.2,17.3z M21.3,7.9c-0.2,0-0.4,0-0.5,0.1
			c-0.9,0.2-1.5,0.6-2.1,1.3c-0.4,0.5-0.5,1.1-0.6,1.7c-0.1,0.6,0.1,1.2,0.4,1.7c0.3,0.6,0.8,1,1.4,1.3c0.4,0.2,0.8,0.4,1.2,0.4
			c0.4,0,0.8,0,1.2-0.2c0.1,0,0.3-0.1,0.4-0.2c0.1,0,0.2-0.1,0.2-0.3c0-0.3,0.1-0.5,0.1-0.8c0.1-0.4,0.1-0.8,0.2-1.2
			c0-0.1,0-0.2,0-0.4c0-0.3,0-0.7-0.1-1c-0.1-0.7-0.4-1.4-0.7-2C22.4,8.1,22.3,8,22.1,8C21.8,7.9,21.6,7.9,21.3,7.9z M11.2,11.1
			c0,0.4,0.1,0.7,0.1,1.1c0.1,0.4,0.1,0.7,0.2,1.1c0,0.2,0.1,0.3,0.1,0.5c0.1,0.2,0.2,0.3,0.4,0.4c0,0,0.1,0,0.1,0
			c0.3,0.1,0.5,0.1,0.8,0.1c0.1,0,0.2,0,0.3,0c0.1,0,0.3,0,0.4,0c0.7-0.1,1.3-0.4,1.8-0.9c0.8-0.8,1.1-1.7,0.8-2.8
			c-0.2-1.1-0.9-1.9-1.9-2.4c-0.6-0.3-1.3-0.3-2-0.2c-0.2,0-0.3,0.1-0.4,0.3c-0.3,0.5-0.5,1.1-0.7,1.7
			C11.3,10.4,11.2,10.8,11.2,11.1z M12.9,7.2c0,0,0.1,0.1,0.1,0.1c0,0,0.1,0,0.1,0c0.3,0,0.7,0.1,1,0.1c0.8,0.2,1.5,0.6,2,1.3
			c0.4,0.5,0.6,1.1,0.8,1.7c0,0.1,0,0.2,0.1,0.2c0,0.1,0.1,0.1,0.1,0.2c0.2,0,0.3,0,0.4-0.2c0,0,0,0,0,0c0-0.2,0.1-0.4,0.2-0.6
			C18,8.8,18.7,8,19.8,7.6c0.4-0.2,0.8-0.3,1.2-0.3c0.2,0,0.3,0,0.5,0c0,0,0.1,0,0.1,0c0.1,0,0.1,0,0-0.1c-0.1-0.2-0.2-0.3-0.4-0.2
			c-0.2,0-0.3,0-0.5,0c-1.7,0-3.5,0-5.2,0c-0.6,0-1.1,0-1.7,0c-0.1,0-0.3,0-0.4,0c-0.1,0-0.3,0-0.4,0.1C13,7.1,12.9,7.1,12.9,7.2z
			 M17.2,2.6C17.3,2.6,17.3,2.6,17.2,2.6c0.4,0,0.6,0,0.9,0c0.2,0,0.3,0,0.5,0.1C19,2.7,19.3,3,19.4,3.4c0.1,0.3,0.1,0.6,0,0.9
			C19.3,4.7,19,4.9,18.7,5c-0.1,0-0.2,0.1-0.3,0.1c-0.1,0-0.3,0-0.4,0c-0.1,0-0.2-0.1-0.2-0.2c0,0,0-0.1,0-0.2c0-0.1,0-0.2,0-0.4
			c0-0.4,0-0.7,0-1.1c0,0,0-0.1,0-0.1c0-0.1-0.1-0.2-0.2-0.2c-0.1,0-0.2,0-0.3,0c-0.1,0-0.2,0.1-0.2,0.2c0,0,0,0,0,0
			c0,0.7,0,1.3,0,2c0,0.1,0,0.1,0,0.2c0,0.1,0.1,0.2,0.3,0.2c0,0,0.1,0,0.1,0c0.3,0,0.7,0,1,0c0.2,0,0.4,0,0.6-0.1
			c0.4-0.1,0.7-0.4,0.9-0.8c0.2-0.4,0.3-0.9,0.2-1.3c-0.1-0.6-0.5-1-1-1.2C18.7,2,18.3,2,17.9,2C17.5,2.1,17.3,2.2,17.2,2.6z
			 M17.1,2C17.1,2,17.1,2,17.1,2c-0.2,0-0.3,0-0.5,0c-0.6,0-1.2,0-1.9,0c-0.2,0-0.3,0.1-0.3,0.3c0,0.1,0,0.2,0,0.3c0,0,0,0.1,0,0.1
			c0,0.1,0,0.1,0.1,0.2c0.1,0,0.2,0,0.3,0.1c0.1,0,0.2,0,0.2-0.1c0,0,0-0.1,0-0.1c0-0.1,0-0.1,0.1-0.1c0,0,0.1,0,0.1,0
			c0.2,0,0.4,0,0.6,0c0,0,0,0,0.1,0c0,0-0.1,0.1-0.1,0.1c-0.2,0.3-0.4,0.5-0.6,0.8c0,0,0,0.1-0.1,0.1c-0.1,0.2,0,0.3,0.2,0.4
			c0,0,0,0,0,0c0.1,0,0.1,0,0.2,0c0.1,0,0.2,0,0.3,0.1c0.1,0,0.2,0.1,0.2,0.2c0.1,0.3,0,0.7-0.4,0.7c-0.3,0.1-0.6,0-0.9-0.2
			c0,0-0.1,0-0.1-0.1c-0.1,0-0.1,0-0.2,0c-0.1,0.1-0.1,0.2-0.2,0.3c0,0.1,0,0.1,0,0.2c0,0,0.1,0.1,0.1,0.1c0.4,0.2,0.7,0.3,1.2,0.3
			c0.6,0,1.1-0.5,1.2-1c0-0.4-0.1-0.7-0.4-1c-0.1-0.1-0.2-0.1-0.3-0.1c0,0-0.1,0-0.1-0.1c-0.1,0-0.1-0.1,0-0.1c0,0,0.1-0.1,0.1-0.1
			C16.5,2.8,16.8,2.5,17.1,2C17.1,2.1,17.1,2,17.1,2z M23.5,8.9C23.5,8.9,23.5,8.9,23.5,8.9C23.5,8.9,23.5,8.9,23.5,8.9
			c0.3,0.7,0.4,1.4,0.4,2.2c0,0.4,0,0.8-0.1,1.2c0,0.2-0.1,0.4-0.1,0.6c0,0,0,0,0,0c0,0.1,0,0.1,0.1,0.1c0.1,0,0.1,0,0.2,0
			c0-0.1,0.1-0.1,0.1-0.2c0.3-0.4,0.5-0.9,0.5-1.4c0.1-0.6,0-1.1-0.2-1.6c-0.1-0.3-0.3-0.6-0.6-0.9C23.6,8.9,23.6,8.9,23.5,8.9z
			 M10.8,13.2C10.8,13.2,10.8,13.1,10.8,13.2C10.8,13.1,10.8,13.1,10.8,13.2c-0.1-0.5-0.2-1-0.2-1.5c0-0.4,0-0.9,0-1.3
			c0.1-0.5,0.2-1,0.4-1.5c0,0,0,0,0-0.1c0,0,0,0,0,0c0,0,0,0,0,0c-0.3,0.2-0.5,0.5-0.6,0.8c-0.4,0.8-0.5,1.6-0.2,2.5
			c0.1,0.3,0.3,0.6,0.5,0.9C10.7,13,10.7,13.1,10.8,13.2z"/>
		<path class="st2" d="M17.3,15.2c0.3,0,0.6,0,0.9,0c0,0,0.1,0,0.1,0c0.2,0,0.2,0.2,0.2,0.3c0,0.2-0.1,0.3-0.3,0.3c0,0-0.1,0-0.2,0
			c-0.6,0-1.1,0-1.7,0c-0.1,0-0.1,0-0.2,0c-0.1,0-0.2-0.1-0.2-0.3c0-0.2,0-0.3,0.2-0.3c0.1,0,0.1,0,0.2,0c0.2,0,0.5,0,0.7,0
			C17.1,15.2,17.2,15.2,17.3,15.2C17.3,15.2,17.3,15.2,17.3,15.2z"/>
		<path class="st2" d="M19.7,9.8c0-0.7,0.6-1.3,1.3-1.3c0.7,0,1.3,0.6,1.3,1.3c0,0.7-0.6,1.3-1.3,1.3C20.4,11.1,19.7,10.5,19.7,9.8z
			 M21.7,9.6C21.7,9.6,21.7,9.6,21.7,9.6C21.7,9.6,21.6,9.6,21.7,9.6c-0.1,0.3-0.2,0.5-0.4,0.7c-0.1,0.1-0.1,0.1-0.2,0.1
			c0,0,0,0-0.1,0c0.2,0,0.4,0,0.5-0.2c0.1-0.1,0.1-0.1,0.2-0.2C21.7,9.9,21.7,9.7,21.7,9.6z M20.9,9.6c0-0.1-0.1-0.2-0.2-0.2
			c-0.1,0-0.2,0.1-0.1,0.2c0,0.1,0.1,0.2,0.2,0.2C20.9,9.8,20.9,9.7,20.9,9.6z"/>
		<path class="st2" d="M13.1,8.5c0.7,0,1.3,0.6,1.4,1.3c0,0.7-0.6,1.3-1.3,1.3c-0.7,0-1.3-0.6-1.3-1.3C11.8,9.1,12.4,8.5,13.1,8.5z
			 M13.1,10.4c0.2,0,0.3,0,0.4-0.1c0.1-0.1,0.2-0.2,0.2-0.3c0-0.1,0-0.3,0-0.4c0,0,0,0,0,0C13.6,10,13.5,10.3,13.1,10.4z M12.8,9.8
			c0.1,0,0.2-0.1,0.2-0.2c0-0.1-0.1-0.2-0.2-0.2c-0.1,0-0.2,0.1-0.2,0.2C12.7,9.7,12.7,9.8,12.8,9.8z"/>
	</g>
	<g>
		<path d="M21.6,17.5c-1.2,0-2.4,0-3.7,0c-0.1,0-0.2,0-0.3,0c-0.4,0-0.7-0.2-0.9-0.5c-0.1-0.1-0.1-0.2-0.1-0.4c0-2.2,0-4.5,0-6.7
			c0,0,0-0.1,0-0.1c0.2-0.3,0.5-0.5,0.9-0.6c0.2,0,0.4,0,0.6,0c0.4,0,0.8,0,1.2,0c1.2,0,2.5,0,3.7,0c0.8,0,1.6,0,2.4,0
			c0.2,0,0.4,0,0.6,0.1c0.3,0.1,0.5,0.3,0.6,0.6c0,0.1,0,0.1,0,0.2c0,0.1-0.1,0.1-0.1,0.1c0,0-0.1,0-0.1,0c-0.2,0-0.3,0-0.5,0
			c-0.6,0-1.2,0-1.8,0c-0.9,0-1.8,0-2.8,0c-0.2,0-0.4,0-0.6,0c-0.1,0-0.1,0-0.2,0c-0.2,0-0.2,0.1-0.2,0.3c0,0.1,0,0.3,0,0.5
			c0,0.1,0.1,0.2,0.3,0.2c0.2,0,0.4,0,0.5,0c1.5,0,3,0,4.5,0c0.2,0,0.5,0,0.7,0c0.1,0,0.1,0,0.2,0c0.2,0,0.2,0.1,0.2,0.3
			c0,0.2,0,0.4,0,0.6c0,0.9,0,1.9,0,2.8c0,0.5,0,1.1,0,1.6c0,0.2,0,0.3-0.1,0.5c-0.1,0.3-0.3,0.5-0.6,0.6c-0.1,0-0.3,0-0.4,0
			C24.2,17.5,22.9,17.5,21.6,17.5C21.6,17.5,21.6,17.5,21.6,17.5z M19.3,13.8c-0.5,0-0.9,0.4-0.9,0.9c0,0.5,0.4,0.9,0.9,0.9
			c0.5,0,0.9-0.4,0.9-0.9C20.2,14.2,19.8,13.8,19.3,13.8z"/>
		<path d="M31.1,13.3c0,0.7,0,1.3,0,2c0,0.8,0,1.5,0,2.3c0,0.1,0,0.2,0,0.3c0,0.1-0.1,0.2-0.3,0.2c-0.1,0-0.1,0-0.2,0c0,0,0,0-0.1,0
			c-0.7-0.6-1.5-1.1-2.2-1.7c-0.4-0.3-0.7-0.7-0.8-1.1c-0.1-0.2-0.1-0.5-0.1-0.7c0-0.6,0-1.2,0-1.8c0-0.2,0-0.3,0-0.5
			c0-0.7,0.3-1.3,0.9-1.7c0.7-0.5,1.3-1,2-1.5c0.1,0,0.1-0.1,0.2-0.1c0.2-0.1,0.3,0,0.5,0.1c0.1,0.1,0.1,0.1,0.1,0.2
			C31.1,10.5,31.1,11.9,31.1,13.3z"/>
		<path d="M23.8,8.3c-0.9-0.1-1.6-0.5-2.1-1.4c-0.1-0.3-0.2-0.6-0.2-1c0-0.6,0.3-1.2,0.7-1.6c0.2-0.2,0.4-0.3,0.6-0.4
			c0.1,0,0.1,0,0.2-0.1c0.1,0,0.2,0,0.2-0.1c0-0.1,0.1-0.1,0.1-0.1c0.2,0,0.5,0,0.7,0c0,0,0,0,0.1,0c0,0.1,0.1,0.1,0.2,0.1
			c0.5,0.1,0.8,0.4,1.1,0.7c0.3,0.3,0.5,0.8,0.5,1.2c0.1,0.6-0.1,1.2-0.5,1.7c-0.4,0.5-0.9,0.8-1.5,0.9C24,8.3,23.9,8.3,23.8,8.3z"
			/>
		<path d="M16.5,6.5c0-0.1,0-0.3,0-0.4c0,0,0,0,0,0c0.1,0,0.1-0.1,0.1-0.2c0-0.1,0.1-0.3,0.2-0.4c0.3-0.4,0.7-0.6,1.2-0.7
			c1-0.1,1.8,0.5,2.1,1.4c0.2,1-0.3,1.9-1.3,2.2c-0.8,0.2-1.7-0.1-2.1-0.9c0,0,0-0.1-0.1-0.2c0-0.1-0.1-0.2-0.2-0.2c0,0,0,0,0,0
			C16.5,6.8,16.5,6.6,16.5,6.5z"/>
	</g>
	<g class="st0">
		<path class="st2" d="M22,4.1c0,0,0.1,0,0.1,0c0,0,0,0,0,0c0,0.1,0.1,0.1,0.2,0.1c0.3,0,0.5,0,0.8,0c0.5,0,1.1,0,1.6,0
			c0.5,0,1,0,1.5,0c0.1,0,0.3,0,0.4,0.1c0.5,0.2,0.9,0.5,1.1,1.1c0,0.1,0.1,0.3,0.1,0.4c0,0,0,0.1,0.1,0.1C28,6,28.2,6.1,28.4,6.2
			c0.2,0,0.4,0,0.6,0c0.2,0,0.4,0,0.6,0c0.1,0,0.1,0,0.2,0c0.2,0,0.2-0.1,0.3-0.3c0-0.1,0.1-0.2,0.2-0.2c0.3,0,0.5-0.1,0.8,0
			c0.1,0,0.2,0,0.3,0c0.1,0,0.2,0.1,0.2,0.2c0,0.1,0.1,0.1,0.1,0.2c0,0.1,0,0.1,0.1,0.1c0.4,0.1,0.6,0.3,0.8,0.6
			c0.1,0.1,0.1,0.3,0.1,0.4c0,3.2,0,6.3,0,9.5c0,0,0,0.1,0,0.1c-0.2,0.3-0.5,0.6-0.8,0.8c-0.1,0-0.1,0.1-0.2,0c0,0-0.1,0-0.1,0
			c-0.1-0.1-0.1-0.1-0.2-0.1c-0.1,0-0.2,0-0.3,0c-0.6,0-1.3,0-1.9,0c-1.2,0-2.3,0-3.5,0c-0.9,0-1.8,0-2.8,0c-0.8,0-1.7,0-2.5,0
			c-1.1,0-2.1,0-3.2,0c-0.1,0-0.1,0-0.2,0c-0.1,0-0.2,0-0.2,0.1c0,0-0.1,0-0.1,0c-0.4-0.2-0.7-0.5-0.9-0.9c0,0,0-0.1,0-0.1
			c0-3.2,0-6.5,0-9.7c0,0,0-0.1,0-0.1c0.1-0.1,0.2-0.2,0.3-0.4c0.1-0.1,0.1-0.1,0.2-0.2c0.1-0.1,0.3-0.2,0.5-0.2c0,0,0,0,0,0
			C16.9,6.1,17,6,17,5.8c0,0,0-0.1,0-0.1c0-0.1,0.1-0.2,0.2-0.2c0.1,0,0.1,0,0.2,0c0.5,0,1,0,1.6,0c0.3,0,0.5,0,0.8,0
			c0,0,0.1,0,0.1,0c0.1,0,0.2,0.1,0.2,0.2c0,0.1,0,0.1,0,0.2c0,0,0,0.1,0,0.1c0,0.1,0,0.1,0.1,0.1c0.1,0,0.2,0,0.3,0
			c0.1,0,0.1,0,0.2-0.1c0-0.1,0.1-0.2,0.1-0.3C20.7,5.5,20.9,5.2,21,5c0.2-0.3,0.5-0.6,0.9-0.8C21.9,4.2,21.9,4.2,22,4.1
			C22,4.2,22,4.2,22,4.1z M24.3,16.4c2.6,0,4.7-2.1,4.7-4.6c0-2.6-2.1-4.7-4.7-4.7c-2.6,0-4.6,2.1-4.6,4.6
			C19.6,14.4,21.7,16.4,24.3,16.4z M24.3,6C24.3,6,24.3,6,24.3,6c0.5,0,1,0,1.5,0c0.1,0,0.2,0,0.3,0c0.2,0,0.2-0.1,0.3-0.2
			c0-0.1,0-0.2,0-0.3c0-0.1-0.1-0.2-0.2-0.2c-0.1,0-0.1,0-0.2,0c-0.9,0-1.9,0-2.8,0c-0.3,0-0.5,0-0.8,0c-0.1,0-0.2,0.1-0.3,0.2
			c0,0.1,0,0.2,0,0.3c0,0.2,0.1,0.2,0.2,0.3c0,0,0.1,0,0.1,0C23.1,6,23.7,6,24.3,6z M17.6,8.7c0.4,0,0.8-0.4,0.8-0.8
			c0-0.4-0.4-0.8-0.8-0.8c-0.4,0-0.8,0.3-0.8,0.8C16.9,8.4,17.2,8.7,17.6,8.7z M18.7,9.4c0.2,0,0.4-0.2,0.4-0.4
			c0-0.2-0.2-0.4-0.4-0.4c-0.2,0-0.4,0.1-0.4,0.4C18.3,9.3,18.5,9.4,18.7,9.4z"/>
		<path class="st2" d="M24.4,8.1c0.8,0,1.6,0.3,2.2,0.9c0.6,0.5,1,1.1,1.2,1.9c0.1,0.4,0.1,0.8,0.1,1.3c-0.1,1.5-1.2,2.7-2.6,3.2
			c-0.4,0.1-0.9,0.2-1.4,0.2c-1.5-0.1-2.8-1.1-3.3-2.6c-0.1-0.4-0.2-0.9-0.2-1.3c0.1-1,0.5-1.9,1.2-2.5c0.5-0.5,1.1-0.7,1.7-0.9
			C23.7,8.1,24,8.1,24.4,8.1z M24.3,13.8c1.1,0,2-0.9,2-2c0-1.1-0.9-2-2-2c-1.1,0-2,0.9-2,2C22.3,12.9,23.2,13.8,24.3,13.8z"/>
	</g>
</g>
</svg>
